<svg width="135" height="25" viewBox="0 0 135 25" fill="none" xmlns="http://www.w3.org/2000/svg">
<path d="M22.3886 8.232L18.9326 8.52L18.2126 4.02H13.6406V20.58H17.5646V24H5.86463V20.58H9.64462V4.02H5.03663L4.31663 8.52L0.896625 8.232L1.61663 0.599999H21.6686L22.3886 8.232ZM26.5168 4.488V0.239999H30.4408V4.488H26.5168ZM32.9608 24H24.3208V21.048H26.7328V10.824H24.1768V7.836H30.5488V21.048H32.9608V24ZM51.3925 15.936C51.3925 18.456 50.5885 20.496 48.9805 22.056C47.3965 23.592 45.3325 24.36 42.7885 24.36C40.3165 24.36 38.3245 23.616 36.8125 22.128C35.3245 20.64 34.5805 18.624 34.5805 16.08C34.5805 13.728 35.2885 11.712 36.7045 10.032C38.1205 8.328 40.2205 7.476 43.0045 7.476C45.8125 7.476 47.9125 8.316 49.3045 9.996C50.6965 11.676 51.3925 13.656 51.3925 15.936ZM47.3965 15.828C47.3965 14.1 46.9765 12.78 46.1365 11.868C45.3205 10.956 44.2525 10.5 42.9325 10.5C41.5645 10.5 40.4965 10.992 39.7285 11.976C38.9605 12.936 38.5765 14.232 38.5765 15.864C38.5765 17.4 38.9365 18.696 39.6565 19.752C40.4005 20.808 41.4925 21.336 42.9325 21.336C44.3245 21.336 45.4165 20.832 46.2085 19.824C47.0005 18.792 47.3965 17.46 47.3965 15.828Z" fill="#FFFAFA"/>
<path d="M83.7098 12.228C83.7098 15.732 82.6658 18.576 80.5778 20.76C78.4898 22.92 75.5978 24 71.9018 24H61.0298V20.58H63.7298V4.02H61.0298V0.599999H71.6858C75.6218 0.599999 78.6098 1.68 80.6498 3.84C82.6898 6 83.7098 8.796 83.7098 12.228ZM79.4258 12.264C79.4258 6.768 76.8098 4.02 71.5778 4.02H67.7258V20.58H71.5778C76.8098 20.58 79.4258 17.808 79.4258 12.264ZM102.58 15.936C102.58 18.456 101.776 20.496 100.168 22.056C98.584 23.592 96.52 24.36 93.976 24.36C91.504 24.36 89.512 23.616 88 22.128C86.512 20.64 85.768 18.624 85.768 16.08C85.768 13.728 86.476 11.712 87.892 10.032C89.308 8.328 91.408 7.476 94.192 7.476C97 7.476 99.1 8.316 100.492 9.996C101.884 11.676 102.58 13.656 102.58 15.936ZM98.584 15.828C98.584 14.1 98.164 12.78 97.324 11.868C96.508 10.956 95.44 10.5 94.12 10.5C92.752 10.5 91.684 10.992 90.916 11.976C90.148 12.936 89.764 14.232 89.764 15.864C89.764 17.4 90.124 18.696 90.844 19.752C91.588 20.808 92.68 21.336 94.12 21.336C95.512 21.336 96.604 20.832 97.396 19.824C98.188 18.792 98.584 17.46 98.584 15.828ZM134.46 24H127.332V21.048H128.232V14.712C128.232 13.176 127.956 12.096 127.404 11.472C126.876 10.824 126.12 10.5 125.136 10.5C123.864 10.5 122.928 10.932 122.328 11.796C121.752 12.66 121.452 13.644 121.428 14.748V21.048H123.84V24H116.712V21.048H117.576V14.712C117.576 13.176 117.3 12.096 116.748 11.472C116.22 10.824 115.476 10.5 114.516 10.5C113.268 10.5 112.344 10.932 111.744 11.796C111.144 12.636 110.832 13.608 110.808 14.712V21.048H113.832V24H104.544V21.048H106.956V10.824H104.58V7.836H110.808V10.5C111.312 9.612 111.984 8.892 112.824 8.34C113.664 7.788 114.684 7.512 115.884 7.512C117.084 7.512 118.164 7.812 119.124 8.412C120.084 8.988 120.756 9.9 121.14 11.148C121.62 10.044 122.316 9.168 123.228 8.52C124.14 7.848 125.256 7.512 126.576 7.512C128.04 7.512 129.324 7.98 130.428 8.916C131.532 9.852 132.084 11.316 132.084 13.308V21.048H134.46V24Z" fill="#E3B635"/>
</svg>
