<svg width="135" height="126" viewBox="0 0 135 126" fill="none" xmlns="http://www.w3.org/2000/svg">
<path d="M16.73 0H126.119V62.7216C126.119 92.9284 101.631 117.416 71.4243 117.416V117.416C41.2175 117.416 16.73 92.9284 16.73 62.7216V0Z" fill="#E3B635"/>
<g clip-path="url(#clip0_2_116)">
<path d="M34.7625 35.119C34.7625 35.119 40.0167 19.5909 49.4901 18.26C58.9636 16.929 61.2457 21.5181 74.7526 18.26C88.2596 15.0018 97.136 13.6293 101.687 24.9703C101.687 24.9703 113.734 38.0722 114.305 53.4616C114.875 68.8511 115.579 75.0623 120.395 85.5576C125.211 96.053 116.852 115.13 103.412 119.567C89.9712 124.004 54.8239 126.208 37.9999 119.123C21.1759 112.039 12.1271 105.786 18.9204 78.667C18.9204 78.667 15.9218 47.1949 34.7758 35.119H34.7625Z" fill="#E8DED4"/>
<path d="M32.1354 81.7033C27.4252 73.9947 28.3805 64.1094 32.7723 60.2551C37.164 56.4147 46.7038 55.8047 56.7345 60.5463C66.7652 65.2879 79.1842 62.3903 85.1681 59.5897C91.152 56.7752 98.1576 51.8395 105.309 57.815C112.461 63.7906 111.558 76.5181 108.958 82.0361C106.371 87.5541 99.2854 84.9199 94.1904 82.2718C89.0955 79.6375 83.6953 81.8004 83.6953 81.8004C83.6953 81.8004 80.8825 75.8526 68.1849 78.2234C55.4873 80.5942 51.5201 82.3688 51.5201 82.3688C51.5201 82.3688 48.5083 83.8384 44.1563 84.296C39.8044 84.7535 34.7625 85.9874 32.1354 81.7033Z" fill="#CEBDAE"/>
<path d="M23.0335 57.7457C23.0335 57.7457 23.2192 69.9325 26.1913 74.4107C29.1633 78.8889 27.0537 89.9526 16.9301 89.1901C16.9301 89.1901 15.338 63.1389 23.0335 57.7457Z" fill="#CEBDAE"/>
<path d="M113.363 54.0855C113.363 54.0855 113.177 66.2723 110.205 70.7505C107.233 75.2287 109.343 86.2924 119.466 85.5299C119.466 85.5299 121.058 59.4787 113.363 54.0855Z" fill="#CEBDAE"/>
<path d="M40.7995 100.434C40.7995 100.434 37.0579 104.08 37.7744 108.032C38.4776 111.969 45.6954 115.13 50.3658 114.188C55.0362 113.245 62.9573 108.961 62.9573 108.961C62.9573 108.961 63.5278 114.853 68.5697 114.354C73.6116 113.841 74.2352 105.911 74.2352 105.911C74.2352 105.911 76.5438 105.564 79.9935 107.741C83.4433 109.917 85.8448 113.065 91.3643 112.718C96.8839 112.371 99.6702 107.339 98.6751 102.569C98.6751 102.569 83.284 94.819 68.3574 94.819C53.4307 94.819 40.7995 100.448 40.7995 100.448V100.434Z" fill="#CEBDAE"/>
<path d="M97.2421 26.6202C97.2421 26.6202 93.1423 33.4276 100.002 37.1987C106.861 40.9698 113.588 48.0684 114.504 54.7926C115.419 61.5168 114.04 71.721 115.234 74.8266C116.415 77.9322 122.146 81.0794 124.057 79.1384C125.968 77.1974 126.114 75.4228 126.817 65.4404C127.52 55.4581 129.577 55.8324 131.487 51.9088C133.398 47.9852 132.907 42.8831 128.303 39.93C123.699 36.9769 119.599 36.6025 115.924 27.9512C112.248 19.2998 100.785 22.1836 97.2421 26.6202Z" fill="#8E756F"/>
<path d="M43.6654 23.875C43.6654 23.875 42.3917 13.3243 32.8386 20.1871C23.2856 27.05 23.4846 35.8539 16.625 40.443C9.76534 45.0321 1.91061 47.1672 2.48114 55.0837C3.05167 63.0003 6.87289 65.2325 7.00557 74.0918C7.13825 82.9511 14.1306 84.906 17.766 82.0222C21.3882 79.1384 22.1578 72.3726 21.6536 66.3832C21.1627 60.3938 24.1347 52.8516 27.664 49.8153C31.2066 46.779 37.9999 42.8692 41.4629 36.7273C44.9259 30.5854 43.6521 23.8612 43.6521 23.8612L43.6654 23.875Z" fill="#8E756F"/>
<path d="M99.4048 25.7051C99.4048 25.7051 105.906 24.5266 110.338 33.3998C114.769 42.273 117.503 43.7565 122.598 47.1117C127.692 50.4669 128.542 57.3713 127.321 63.0835C127.321 63.0835 133.265 52.5327 133.265 47.999C133.265 43.4654 125.53 39.3199 122.982 37.7394C120.435 36.1589 117.025 31.5282 115.234 28.0759C113.442 24.6237 106.769 19.5909 99.4048 25.7051Z" fill="#725E59"/>
<path d="M43.6654 23.875C43.6654 23.875 37.2304 20.9912 33.1969 28.2423C29.1633 35.4934 27.8896 42.5088 21.2423 45.9887C14.5949 49.4687 10.6278 51.0215 9.71227 56.5672C8.79677 62.113 13.3875 65.9811 12.0475 72.539C10.7074 79.0968 15.8023 82.0361 15.8023 82.0361C15.8023 82.0361 6.67387 83.991 6.67387 74.8266C6.67387 65.6623 4.40502 63.6658 2.91899 58.938C1.43296 54.2103 2.98533 48.512 8.86311 44.9627C14.7409 41.4135 17.7793 42.9663 21.8791 35.1329C25.979 27.2995 28.9511 20.201 34.046 18.4957C39.141 16.7903 43.8777 18.6482 43.6654 23.8889V23.875Z" fill="#725E59"/>
<path d="M43.9042 91.0618C43.9042 91.0618 52.3826 76.2685 68.7687 75.2564C85.1548 74.2582 98.3832 93.3355 98.3832 93.3355C98.3832 93.3355 101.461 99.0199 96.9635 103.762C92.4788 108.489 86.0703 105.966 81.0417 102.5C76.0131 99.0338 67.8665 97.8414 62.1346 101.391C56.4161 104.94 49.583 107.893 45.6291 105.897C41.6885 103.9 37.9601 96.5798 43.891 91.0756L43.9042 91.0618Z" fill="#8E756F"/>
<path d="M79.4363 79.5821C79.4363 82.1886 74.8588 84.3098 69.2198 84.3098C63.5809 84.3098 59.0034 82.1886 59.0034 79.5821C59.0034 76.9756 63.5809 74.8543 69.2198 74.8543C74.8588 74.8543 79.4363 76.9756 79.4363 79.5821Z" fill="#725E59"/>
<path d="M62.1346 101.668C62.1346 101.668 64.5229 110.389 68.835 109.654C73.1472 108.919 74.2484 99.3804 74.2484 99.3804C74.2484 99.3804 65.7038 99.3804 62.1346 101.668Z" fill="#F77F72"/>
<path d="M45.3372 24.0553C51.9845 15.0573 62.4133 22.2668 71.3162 20.8526C80.3916 19.4108 94.5354 12.1597 100.068 24.0415C101.077 26.2043 104.155 24.3049 103.16 22.1559C97.6402 10.3296 84.5578 13.9898 74.8322 16.3051C69.923 17.4697 65.6772 17.65 60.7415 16.5408C58.3532 16.0001 56.0844 15.3208 53.6165 15.4317C48.8002 15.6535 45.1116 18.3155 42.259 22.1836C40.8526 24.083 43.9573 25.9409 45.3505 24.0692L45.3372 24.0553Z" fill="#5B4A45"/>
<path d="M45.5627 22.8629C44.3819 18.1213 40.3351 15.3623 35.6382 16.1387C29.9329 17.0815 26.5495 22.4193 24.0684 27.3411C21.8924 31.6668 20.0216 35.84 16.0014 38.6822C12.9364 40.8311 9.39384 42.1344 6.38197 44.3804C2.68017 47.1533 -0.451111 51.3681 0.0530777 56.3731C0.437853 60.1303 2.94553 62.9032 4.06005 66.3693C5.29399 70.2097 4.61731 74.4661 6.07681 78.2511C7.54957 82.0776 10.6808 84.8644 14.8072 84.185C19.7297 83.3809 22.3701 78.6116 23.1662 73.9115C23.8296 69.9602 23.2856 65.9534 23.7765 61.9882C24.5062 56.1513 27.3058 51.4651 31.8568 47.9852C33.701 46.5849 31.9098 43.3406 30.0523 44.7548C23.949 49.3993 20.3931 55.8324 19.9951 63.7767C19.8757 66.0643 20.0747 68.3658 19.9287 70.6534C19.6899 74.5216 15.7625 86.3201 9.97764 78.1679C7.41689 74.5493 8.51814 67.9221 6.83309 63.6796C4.60405 58.0507 1.56564 53.5725 7.21787 48.3872C10.787 45.1152 15.5901 43.812 19.3184 40.7618C22.0384 38.5297 23.8561 35.7429 25.5013 32.6096C26.6689 30.3913 27.611 28.0205 28.9245 25.8854C31.1668 22.2529 39.7911 14.5166 42.113 23.8473C42.6968 26.1765 46.1465 25.1921 45.5627 22.8491V22.8629Z" fill="#5B4A45"/>
<path d="M98.3434 28.4226C101.395 26.1072 103.717 24.3603 107.631 24.596C112.01 24.8456 113.044 27.2857 115.287 30.9043C116.945 33.5663 118.365 36.0341 120.78 38.0444C125.251 41.7878 133.61 43.7982 129.935 52.3109C128.634 55.3194 126.246 57.6487 125.331 60.8929C124.415 64.1372 125.238 67.3676 125.105 70.6396C125.317 73.0104 124.76 75.2425 123.433 77.3222C119.042 77.2945 116.972 75.6169 117.224 72.3033C116.574 69.6829 117.197 66.4664 117.211 63.7906C117.224 56.4979 116.229 49.3855 110.524 44.5468C108.759 43.0495 106.211 45.6698 108.003 47.1811C115.672 53.6973 112.859 63.6519 113.588 72.5667C113.894 76.2824 115.313 80.4555 119.015 81.8143C122.717 83.173 126.339 80.6081 127.799 77.0726C130.333 70.9585 126.963 64.5808 130.386 58.5221C132.681 54.4599 135.892 50.5917 134.247 45.5728C132.429 40.027 126.75 38.3079 122.836 34.8834C118.206 30.835 116.866 23.2512 110.802 20.8249C105.641 18.7591 100.586 22.142 96.5389 25.1922C94.6946 26.5925 96.4726 29.8229 98.3434 28.4226Z" fill="#5B4A45"/>
<path d="M17.8722 76.7399C13.3212 91.1311 11.4371 106.493 25.5411 115.519C38.995 124.142 56.3895 126.305 71.8602 125.875C85.7784 125.501 105.137 125.043 115.048 113.286C123.341 103.457 127.467 87.8314 118.365 77.1142C116.839 75.3118 114.318 77.9599 115.844 79.7484C124.946 90.4656 117.794 109.377 106.782 115.616C95.7163 121.882 80.1528 122.257 67.8001 122.16C55.3546 122.076 42.5111 120.024 31.1801 114.409C25.0237 111.359 19.6236 106.895 18.1508 99.5745C16.6648 92.1986 19.1459 84.6287 21.3351 77.7104C22.0649 75.4228 18.6152 74.4384 17.8854 76.7121L17.8722 76.7399Z" fill="#5B4A45"/>
<path d="M44.0634 89.1485C37.2304 93.7099 36.6598 104.441 44.9126 107.99C57.2122 113.273 66.1947 95.1379 78.5473 103.124C85.0752 107.352 92.585 112.149 98.9802 104.552C104.526 97.9524 100.904 88.8158 93.8057 85.7101C91.6828 84.7812 90.7673 88.3998 92.8504 89.3149C97.136 91.1866 99.6569 96.8432 96.99 101.197C94.1506 105.813 88.9893 105.481 85.0222 103.138C81.4398 101.016 78.3881 97.9247 74.2352 97.0373C70.2813 96.2055 66.3008 97.6058 62.798 99.422C59.5739 101.086 56.562 103.429 53.0725 104.469C50.5648 105.217 49.1717 105.106 46.7038 104.136C41.914 102.278 41.1047 95.5677 45.8812 92.365C47.8183 91.0757 46.0271 87.8453 44.0767 89.1346L44.0634 89.1485Z" fill="#5B4A45"/>
<path d="M54.3595 82.8818C63.0501 75.1316 74.5271 74.9098 83.7086 81.8143C85.5794 83.2146 87.3573 79.9842 85.5131 78.5839C74.9516 70.6396 61.6703 71.4714 51.8386 80.2337C50.0872 81.8004 52.6214 84.4208 54.3595 82.8679V82.8818Z" fill="#5B4A45"/>
<path d="M65.2394 69.6413C68.1584 68.5045 71.0906 68.352 74.0892 69.267C76.305 69.9464 77.247 66.3416 75.0445 65.6623C71.4887 64.5808 67.7736 64.6918 64.2973 66.0366C62.1612 66.8685 63.0899 70.4732 65.2526 69.6413H65.2394Z" fill="#5B4A45"/>
<path d="M86.3888 72.8579C88.9893 67.0487 94.1639 63.0973 100.347 62.6398C102.629 62.4735 102.642 58.7301 100.347 58.9103C92.9698 59.4649 86.4551 63.9431 83.3106 70.9862C82.342 73.149 85.4202 75.0484 86.402 72.8717L86.3888 72.8579Z" fill="#5B4A45"/>
<path d="M84.8497 73.8561C89.5731 73.7036 94.0179 75.1593 97.7065 78.2927C99.4711 79.79 102.019 77.1697 100.227 75.6585C95.8091 71.9012 90.555 69.9463 84.8364 70.1266C82.541 70.1959 82.5278 73.9393 84.8364 73.8561H84.8497Z" fill="#5B4A45"/>
<path d="M85.8448 73.6204C91.6429 70.7228 98.1576 70.5287 104.075 73.1767C106.172 74.1057 107.989 70.903 105.88 69.9464C98.6751 66.7298 91.1122 66.8407 84.0403 70.39C81.9705 71.4298 83.7749 74.6464 85.8448 73.6204Z" fill="#5B4A45"/>
<path d="M41.3966 63.7628C35.9832 64.0263 33.104 70.182 35.7576 75.0068C38.3184 79.693 44.9259 79.8316 48.0174 75.6446C51.2415 71.2773 48.8798 64.3451 43.7318 63.0973C37.907 61.6832 33.8735 68.6154 36.4476 73.8284C38.9685 78.9166 46.5313 78.5838 47.3407 72.4558C47.6724 69.9463 46.9426 66.9932 45.0453 65.3156C43.0551 63.5549 40.2688 64.054 38.5705 65.995C36.8589 67.9776 36.5802 71.3328 38.252 73.4402C39.7911 75.3534 42.6968 75.9496 44.634 74.3275C48.9594 70.6812 43.4399 63.6796 39.3665 67.7419C37.5223 69.5859 38.0795 72.8995 40.2555 74.2027C42.604 75.603 45.8281 73.6897 45.6954 70.8059C45.5628 67.8667 42.1528 66.2584 40.0698 68.3381C37.8938 70.5009 39.7115 73.9531 42.4713 73.9393C44.7667 73.9254 44.7799 70.1959 42.4713 70.2098C42.3519 70.9723 42.1794 71.1525 41.9538 70.7505C41.7415 70.6257 41.7415 70.5148 41.9538 70.4316C42.2457 70.5702 42.657 70.2098 42.657 70.903C42.657 72.0953 40.3749 71.1941 40.7332 69.5165C41.0118 68.2688 42.2059 67.4508 43.0816 68.5876C43.7052 69.3918 43.9175 70.695 43.8246 71.7071C43.5593 74.6186 40.3484 74.0779 39.4594 71.818C38.6103 69.6413 39.8177 66.5218 42.3386 66.6466C46.8896 66.8685 46.9957 74.175 42.604 74.9237C37.907 75.7278 36.5537 67.728 41.3833 67.5062C43.6787 67.3953 43.6919 63.6658 41.3833 63.7767L41.3966 63.7628Z" fill="#5B4A45"/>
<path d="M32.7855 63.0696C34.2185 61.5168 35.9168 60.3661 37.8805 59.6867C40.0565 58.938 39.1277 55.3333 36.9252 56.082C34.3777 56.9693 32.1221 58.4112 30.2513 60.4215C28.6591 62.1546 31.1801 64.7888 32.7723 63.0558L32.7855 63.0696Z" fill="#5B4A45"/>
<path d="M60.1577 102.334C59.4943 107.782 63.886 112.621 69.1535 111.886C75.217 111.054 76.6102 105.051 76.65 99.6161C76.6765 97.2176 73.0941 97.2176 73.0808 99.6161C73.0543 102.833 72.9482 106.978 69.379 108.059C65.8232 109.127 63.3288 105.772 63.7401 102.334C64.032 99.9627 60.4496 99.9766 60.1709 102.334H60.1577Z" fill="#5B4A45"/>
<path d="M66.2212 99.9211C65.3853 101.086 65.9293 102.846 67.0704 103.512C67.9195 103.997 69.0208 103.72 69.5117 102.847C69.9894 101.987 69.7107 100.781 68.8748 100.295C69.1933 100.476 69.6046 101.391 69.2994 101.821C69.8832 101.016 69.4188 99.7409 68.6626 99.2695C67.7471 98.7149 66.805 99.1308 66.2212 99.935V99.9211Z" fill="#5B4A45"/>
<path d="M59.8923 75.0346C57.7561 76.0467 56.9601 78.6532 57.9419 80.8715C59.3749 84.1435 64.0187 85.5299 67.0571 86.1261C72.9216 87.263 82.1164 84.809 79.768 76.5735C79.1178 74.272 75.6681 75.2564 76.3183 77.5718C77.5655 81.9529 72.4042 83.0482 69.326 82.7432C67.893 82.6045 66.4335 82.2302 65.0669 81.7311C64.8413 81.6479 59.5606 79.2771 61.6968 78.2511C63.7799 77.2529 61.9754 74.0363 59.8923 75.0207V75.0346Z" fill="#5B4A45"/>
<path d="M62.6786 80.6774C62.5592 80.9547 62.4531 81.2319 62.3337 81.5092C61.9489 82.4381 62.0683 83.5057 62.9705 84.0603C63.7268 84.5178 65.0271 84.3237 65.4119 83.3948L65.7568 82.5629C66.1416 81.634 66.0222 80.5665 65.12 80.0119C64.3637 79.5544 63.0634 79.7485 62.6786 80.6774Z" fill="#5B4A45"/>
<path d="M72.8022 83.173C73.3993 83.8107 74.1423 84.2682 74.9649 84.4901C75.8672 84.7396 76.9419 84.185 77.1674 83.1868C77.3797 82.2163 76.8888 81.1488 75.9202 80.8853C75.8008 80.8576 75.6947 80.816 75.5753 80.7744C75.6947 80.8299 75.7079 80.816 75.6018 80.7605C75.4956 80.6912 75.4956 80.6912 75.6018 80.7883C75.5089 80.7051 75.4293 80.6219 75.3497 80.5249C74.673 79.8039 73.4922 79.8178 72.8288 80.5249C72.1653 81.2319 72.1521 82.4381 72.8288 83.1591L72.8022 83.173Z" fill="#5B4A45"/>
<path d="M67.7869 86.0429C67.8267 89.7447 67.8797 93.4603 67.9195 97.1621C67.9461 99.5606 71.5285 99.5745 71.4887 97.1621C71.4489 93.4603 71.3958 89.7447 71.356 86.0429C71.3294 83.6443 67.7471 83.6305 67.7869 86.0429Z" fill="#5B4A45"/>
<path d="M52.5551 96.5105C54.8504 96.5105 54.8637 92.781 52.5551 92.781C50.2464 92.781 50.2464 96.5105 52.5551 96.5105Z" fill="#5B4A45"/>
<path d="M57.3581 89.6199C57.3581 89.6199 57.2785 89.7031 57.2387 89.7447C56.562 90.4518 56.562 91.6718 57.2387 92.3789C57.9286 93.0998 59.083 93.0998 59.7596 92.3789C59.7994 92.3373 59.8392 92.2957 59.8791 92.2541C60.5557 91.547 60.5557 90.327 59.8791 89.6199C59.1891 88.8989 58.0348 88.8989 57.3581 89.6199Z" fill="#5B4A45"/>
<path d="M57.5837 97.9524C59.8791 97.9524 59.8923 94.2229 57.5837 94.2229C55.275 94.2229 55.275 97.9524 57.5837 97.9524Z" fill="#5B4A45"/>
<path d="M81.9572 92.9335C84.2526 92.9335 84.2659 89.2039 81.9572 89.2039C79.6486 89.2039 79.6486 92.9335 81.9572 92.9335Z" fill="#5B4A45"/>
<path d="M88.4719 95.1934C90.7672 95.1934 90.7805 91.4638 88.4719 91.4638C86.1632 91.4638 86.1632 95.1934 88.4719 95.1934Z" fill="#5B4A45"/>
<path d="M83.4433 98.5486C85.7386 98.5486 85.7519 94.819 83.4433 94.819C81.1346 94.819 81.1346 98.5486 83.4433 98.5486Z" fill="#5B4A45"/>
<path d="M42.3519 67.0625C41.7946 68.0885 42.1794 69.4195 43.1745 70.0018C44.1829 70.5841 45.4699 70.2236 45.921 69.0729C46.3058 68.0885 45.8945 66.8684 45.0188 66.3277C44.0634 65.7454 42.8428 66.1752 42.3386 67.1873C41.8477 68.1994 42.1263 69.5443 43.1214 70.0988C44.1961 70.7089 45.576 70.0988 46.0537 68.9758C46.5181 67.8528 45.9343 66.6328 44.8861 66.1752C43.7716 65.69 42.4845 66.2445 42.0998 67.4646C41.7283 68.6292 42.3253 70.0434 43.4797 70.39C44.6605 70.7505 46.0669 69.9463 46.2925 68.6569C46.4252 67.9499 46.1067 67.118 45.3637 66.9516C44.7136 66.7991 43.8644 67.1596 43.7317 67.9221C43.7052 68.1024 43.7052 67.9776 43.7716 67.8944C43.8379 67.8112 43.891 67.7696 43.9573 67.7142C43.8246 67.8112 43.891 67.7419 43.9838 67.7142C44.1033 67.6864 44.1696 67.7419 44.0236 67.7142C44.3553 67.8112 44.5278 67.8528 44.634 68.1856C44.5809 68.0192 44.634 68.1578 44.634 68.2549C44.634 68.0608 44.6472 68.241 44.634 68.3242C44.5146 68.6569 44.3023 68.7263 43.9838 68.7956C44.1431 68.754 44.0236 68.7956 43.9175 68.7817C43.8246 68.754 43.745 68.6708 43.8644 68.7817C43.4797 68.4906 43.4266 67.6726 44.0104 67.6171C44.289 67.5894 44.5942 67.7974 44.6871 68.0608C44.7003 68.1024 44.7401 68.3935 44.7401 68.2687C44.7401 68.1578 44.7136 68.4213 44.7003 68.4767C44.4615 69.0452 43.6123 68.8926 43.4531 68.5599C43.5327 68.7124 43.3735 68.3103 43.4266 68.4767C43.4531 68.5738 43.4266 68.2826 43.4266 68.2272C43.4797 67.839 43.8246 67.5894 44.1961 67.5894C44.3023 67.5617 44.3952 67.5617 44.488 67.631C44.5676 67.6726 44.5809 67.6864 44.5146 67.631C44.4084 67.5617 44.6074 67.7419 44.634 67.7558C44.7401 67.8667 44.634 67.6449 44.6605 67.8112C44.7003 68.0192 44.7534 68.2965 44.634 68.5044C44.9789 67.8528 44.7799 66.9794 44.1563 66.605C43.546 66.2307 42.6836 66.4525 42.3386 67.1041L42.3519 67.0625Z" fill="#151515"/>
<path d="M38.1857 73.4956C37.8938 74.0363 38.0928 74.7157 38.6103 75.0207C39.1277 75.3257 39.8044 75.1316 40.0299 74.5354C40.229 74.0225 40.0299 73.3847 39.5656 73.1074C39.0746 72.8024 38.4378 73.0242 38.1724 73.5511C37.9203 74.0779 38.0663 74.7711 38.5837 75.0623C39.141 75.3812 39.8575 75.0623 40.0963 74.48C40.3351 73.8977 40.0299 73.2599 39.486 73.0242C38.9022 72.7747 38.2387 73.0658 38.0397 73.6897C37.8407 74.2998 38.1591 75.0207 38.7562 75.2009C39.3665 75.3812 40.0963 74.9652 40.2157 74.2998C40.282 73.9254 40.1228 73.5095 39.738 73.4124C39.3931 73.3292 38.9552 73.5233 38.8889 73.9116C38.8756 74.0086 38.8889 73.9393 38.9022 73.9116C38.9287 73.87 38.9552 73.8422 39.0083 73.8145C38.942 73.87 38.9685 73.8145 39.0216 73.8145C39.0879 73.8145 39.1144 73.8284 39.0481 73.8145C39.2206 73.8561 39.3135 73.8838 39.3665 74.0641C39.34 73.9809 39.3665 74.0502 39.3665 74.0918C39.3665 73.9947 39.3665 74.0918 39.3665 74.1195C39.3002 74.2859 39.1941 74.3275 39.0348 74.3691C39.1144 74.3552 39.0614 74.3691 39.0083 74.3691C38.9552 74.3691 38.9154 74.3136 38.9818 74.3691C38.7827 74.2166 38.7562 73.8006 39.0614 73.759C39.2073 73.7452 39.3665 73.8561 39.4196 73.9947C39.4196 74.0225 39.4461 74.1611 39.4461 74.1057C39.4461 74.0502 39.4461 74.1888 39.4196 74.2166C39.3002 74.5216 38.8623 74.4245 38.7695 74.2582C38.8093 74.3413 38.7297 74.1195 38.7562 74.2166C38.7562 74.272 38.7562 74.1195 38.7562 74.0918C38.7827 73.8838 38.9685 73.759 39.1542 73.759C39.2073 73.7452 39.2604 73.759 39.3002 73.7729C39.34 73.8006 39.3533 73.8006 39.3135 73.7729C39.2604 73.7452 39.3665 73.8284 39.3798 73.8422C39.4329 73.8977 39.3798 73.7868 39.3931 73.87C39.4196 73.9809 39.4329 74.1195 39.3931 74.2304C39.5788 73.8838 39.4727 73.4402 39.141 73.2461C38.8225 73.052 38.3847 73.1629 38.1989 73.5095L38.1857 73.4956Z" fill="#151515"/>
</g>
<defs>
<clipPath id="clip0_2_116">
<rect width="134.698" height="112.038" fill="white" transform="translate(0 13.8927)"/>
</clipPath>
</defs>
</svg>
